<?xml version='1.0' encoding='utf-8'?>
<svg xmlns="http://www.w3.org/2000/svg" version="1.1" id="Layer_1" x="0px" y="0px" viewBox="0 0 1474 1626.005" enable-background="new 0 0 1474 1626.005"> <g id="Man_Head_Silhouette"> <g id="Man_Head_Silhouette_2"> <g id="Man_Head_Silhouette_3"> <path d="M1402.694,872.635c172.155-430.179-38.201-804.688-513.982-854.383C468.598-25.629,234.919,212.927,202.076,459.384 c-3.481,26.388,0,52.776,12.442,80.161C156.802,629.664,23.948,762.6,12.508,826.331c-6.968,38.337,38.311,51.78,60.206,65.224 c20.899,6.971,43.785,1.99,57.715,18.92c9.951,12.448-3.481,33.359-6.47,48.794c-0.498,25.392-30.346,37.84-27.363,61.24 c2.989,19.916,19.903,27.883,35.328,40.33c16.421,12.944-41.798,37.839-22.892,60.743c19.404,22.404,47.77,48.295,37.813,80.16 c-14.429,49.291-42.296,100.573-19.405,138.911c20.759,34.767,55.247,56.922,94.115,66.463 c38.453,9.44,79.286,5.366,118.463,4.615c0.276-0.005,0.552-0.012,0.829-0.017c-32.592-41.359-8.633-84.525-13.149-102.408 c-2.069-8.192-8.312-14.863-13.52-21.266c-3.686-4.531-8.809-13.916-6.741-19.944c2.226-6.489,14.178-11.041,19.684-13.864 c-3.649-2.238-9.022-2.653-13.33-3.919c-29.404-8.64-14.424-32.867-12.639-53.254c0.62-7.084,4.365-19.89-4.24-20.083 c-22.2-0.498-46.631-4.785-56.695-27.382c-10.053-22.576,13.713-48.806,25.822-65.583c14.969-20.74,28.549-42.429,42.303-63.981 c3.276-5.134,6.964-9.682,10.259-15.316c-3.479-8.11-7.158-16.637-11.072-25.63c-72.184-165.865-18.051-413.176,120.382-459.255 c2.513-0.836,3.805-1.948,4.16-4.732c14.194-111.47,334.591-139.934,512.892-43.862c31.585,17.019,24.444,1.977,69.072,21.578 c7.445,3.269,10.099,10.174,20.941,13.764c40.148,13.292,39.386,13.073,47.343,18.424c20.634,13.88,17.76,25.688,36.566,43.703 c4.888,4.684,1.755,4.901-1.91,10.699c-3.968,6.28-9.472,10.571-16.38,13.28c-2.078,0.815-4.445,1.505-5.828,3.671 c1.78,2.962,7.66,2.014,7.679,4.986c0.019,3.053-7.386,2.822-24.36,13.952c-3.389,2.222-0.621,4.561,3.191,7.662 c47.221,38.41,60.764,91.434,70.272,152.769c1.839,11.867,15.121,36.71,19.859,44.981c7.537,13.162,2.09,36.94,0.086,48.453 c-0.375,2.153-11.216,22.103-18.014,31.028c-6.992,9.177-11.264,4.552-14.178,13.036c-9.632,28.048,7.379,36.729,49.265,118.302 c5.926,11.54,51.223,75.605,49.868,84.946c-0.967,6.674-0.574,13.596-4.354,19.735c-3.83,6.222-6.626,12.983-11.954,18.373 c-12.413,12.557-30.818,16.122-42.143,13.994c-8.444-1.587-17.074-1.823-25.495-3.761c-19.942-4.589-16.702,34.529-13.28,54.806 c1.116,6.613,4.177,10.427,6.447,16.459c3.984,10.589-0.995,20.33-12.005,23.369c-10.338,2.854-18.686,0.644-20.422,3.405 c3.979,4.317,10.832,0.836,15.41,9.218c2.908,5.325,14.456,22.317,11.45,31.512c-1.903,5.82,0.202,9.91-8.393,17.24 c-7.194,6.135-10.282,14.858-13.282,23.499c-0.961,2.768,2.665,12.52,8.472,19.823c25.586,32.176,14.312,80.284-22.75,96.664 c-16.515,7.299-26.693,7.785-57.361,2.739c-13.597-2.237-26.792-2.906-39.466-2.255c9.447,54.246,31.095,106.605,66.862,151.713 h229.993c-32.843-154.35-72.15-408.273-55.23-470.509C1278.8,1036.94,1368.854,957.277,1402.694,872.635z"/> </g> </g> </g> </svg>